<mxfile host="app.diagrams.net" modified="2022-05-04T12:30:04.203Z" agent="5.0 (Windows NT 10.0; Win64; x64) AppleWebKit/537.36 (KHTML, like Gecko) Chrome/101.0.4951.41 Safari/537.36" etag="254RmLl_8vcLhIyXf1Ms" version="17.5.0" type="github">
  <diagram id="R2lEEEUBdFMjLlhIrx00" name="Page-1">
    <mxGraphModel dx="1660" dy="888" grid="1" gridSize="10" guides="1" tooltips="1" connect="1" arrows="1" fold="1" page="1" pageScale="1" pageWidth="850" pageHeight="1100" math="0" shadow="0" extFonts="Permanent Marker^https://fonts.googleapis.com/css?family=Permanent+Marker">
      <root>
        <mxCell id="0" />
        <mxCell id="1" parent="0" />
        <mxCell id="AKfOE-RP20w9o-3AV9IG-1" value="Customer" style="shape=umlActor;verticalLabelPosition=bottom;verticalAlign=top;html=1;outlineConnect=0;fontSize=12;strokeWidth=1;spacing=2;" parent="1" vertex="1">
          <mxGeometry x="80" y="230" width="30" height="60" as="geometry" />
        </mxCell>
        <mxCell id="AKfOE-RP20w9o-3AV9IG-8" value="" style="shape=umlBoundary;whiteSpace=wrap;html=1;fontSize=12;strokeWidth=1;spacing=2;" parent="1" vertex="1">
          <mxGeometry x="500" y="232.13" width="70" height="60" as="geometry" />
        </mxCell>
        <mxCell id="AKfOE-RP20w9o-3AV9IG-12" value="" style="shape=umlBoundary;whiteSpace=wrap;html=1;fontSize=12;strokeWidth=1;spacing=2;" parent="1" vertex="1">
          <mxGeometry x="770" y="312.13" width="70" height="60" as="geometry" />
        </mxCell>
        <mxCell id="AKfOE-RP20w9o-3AV9IG-14" value="" style="ellipse;shape=umlEntity;whiteSpace=wrap;html=1;" parent="1" vertex="1">
          <mxGeometry x="1795" y="70" width="70" height="75" as="geometry" />
        </mxCell>
        <mxCell id="AKfOE-RP20w9o-3AV9IG-17" value="" style="ellipse;shape=umlControl;whiteSpace=wrap;html=1;fontSize=12;strokeWidth=1;spacing=2;" parent="1" vertex="1">
          <mxGeometry x="640" y="232.13" width="50" height="60" as="geometry" />
        </mxCell>
        <mxCell id="AKfOE-RP20w9o-3AV9IG-20" value="&lt;b style=&quot;font-size: 12px;&quot;&gt;Κύρια οθόνη&lt;/b&gt;" style="text;html=1;align=center;verticalAlign=middle;resizable=0;points=[];autosize=1;strokeColor=none;fillColor=none;fontSize=12;strokeWidth=1;spacing=2;" parent="1" vertex="1">
          <mxGeometry x="490" y="292.13" width="90" height="20" as="geometry" />
        </mxCell>
        <mxCell id="AKfOE-RP20w9o-3AV9IG-21" value="" style="endArrow=classic;html=1;rounded=0;fontSize=12;strokeWidth=1;spacing=2;" parent="1" source="AKfOE-RP20w9o-3AV9IG-8" target="AKfOE-RP20w9o-3AV9IG-17" edge="1">
          <mxGeometry width="50" height="50" relative="1" as="geometry">
            <mxPoint x="560" y="302.13" as="sourcePoint" />
            <mxPoint x="610" y="252.13" as="targetPoint" />
            <Array as="points">
              <mxPoint x="610" y="262.13" />
            </Array>
          </mxGeometry>
        </mxCell>
        <mxCell id="AKfOE-RP20w9o-3AV9IG-22" value="&lt;b&gt;Επιλέγει&lt;/b&gt;" style="text;html=1;align=center;verticalAlign=middle;resizable=0;points=[];autosize=1;strokeColor=none;fillColor=none;fontSize=12;strokeWidth=1;spacing=2;" parent="1" vertex="1">
          <mxGeometry x="630" y="292.13" width="70" height="20" as="geometry" />
        </mxCell>
        <mxCell id="AKfOE-RP20w9o-3AV9IG-23" value="" style="endArrow=classic;html=1;rounded=0;exitX=0.996;exitY=0.583;exitDx=0;exitDy=0;exitPerimeter=0;fontSize=12;strokeWidth=1;spacing=2;" parent="1" source="AKfOE-RP20w9o-3AV9IG-17" edge="1">
          <mxGeometry width="50" height="50" relative="1" as="geometry">
            <mxPoint x="680" y="342.13" as="sourcePoint" />
            <mxPoint x="770" y="342.13" as="targetPoint" />
            <Array as="points" />
          </mxGeometry>
        </mxCell>
        <mxCell id="AKfOE-RP20w9o-3AV9IG-24" value="Οθόνη&amp;nbsp;&lt;br style=&quot;font-size: 12px&quot;&gt;Υπηρεσιών Φαρμακείου" style="text;html=1;align=center;verticalAlign=middle;resizable=0;points=[];autosize=1;strokeColor=none;fillColor=none;fontStyle=1;fontSize=12;strokeWidth=1;spacing=2;" parent="1" vertex="1">
          <mxGeometry x="730" y="372.13" width="160" height="40" as="geometry" />
        </mxCell>
        <mxCell id="AKfOE-RP20w9o-3AV9IG-140" value="" style="endArrow=classic;html=1;rounded=0;exitX=1.002;exitY=0.533;exitDx=0;exitDy=0;exitPerimeter=0;fontSize=12;strokeWidth=1;spacing=2;entryX=0.015;entryY=0.562;entryDx=0;entryDy=0;entryPerimeter=0;" parent="1" source="AKfOE-RP20w9o-3AV9IG-12" edge="1" target="AKfOE-RP20w9o-3AV9IG-187">
          <mxGeometry width="50" height="50" relative="1" as="geometry">
            <mxPoint x="870" y="352.13" as="sourcePoint" />
            <mxPoint x="930" y="344" as="targetPoint" />
            <Array as="points" />
          </mxGeometry>
        </mxCell>
        <mxCell id="AKfOE-RP20w9o-3AV9IG-145" value="" style="ellipse;shape=umlControl;whiteSpace=wrap;html=1;fontSize=12;strokeWidth=1;spacing=2;" parent="1" vertex="1">
          <mxGeometry x="1255.07" y="310" width="50" height="60" as="geometry" />
        </mxCell>
        <mxCell id="AKfOE-RP20w9o-3AV9IG-147" value="&lt;b style=&quot;font-size: 12px;&quot;&gt;Υπάρχει διαθέσιμο&lt;br style=&quot;font-size: 12px;&quot;&gt;Φαρμακείο?&lt;br style=&quot;font-size: 12px;&quot;&gt;&lt;/b&gt;" style="text;html=1;align=center;verticalAlign=middle;resizable=0;points=[];autosize=1;strokeColor=none;fillColor=none;fontSize=12;strokeWidth=1;spacing=2;" parent="1" vertex="1">
          <mxGeometry x="1223.6200000000001" y="372.13" width="130" height="40" as="geometry" />
        </mxCell>
        <mxCell id="AKfOE-RP20w9o-3AV9IG-150" value="" style="endArrow=classic;html=1;rounded=0;fontSize=12;strokeWidth=1;spacing=2;" parent="1" edge="1">
          <mxGeometry width="50" height="50" relative="1" as="geometry">
            <mxPoint x="1303.62" y="330" as="sourcePoint" />
            <mxPoint x="1373.62" y="265" as="targetPoint" />
            <Array as="points" />
          </mxGeometry>
        </mxCell>
        <mxCell id="AKfOE-RP20w9o-3AV9IG-151" value="" style="shape=umlBoundary;whiteSpace=wrap;html=1;" parent="1" vertex="1">
          <mxGeometry x="1513.62" y="210" width="80" height="70" as="geometry" />
        </mxCell>
        <mxCell id="AKfOE-RP20w9o-3AV9IG-152" value="" style="endArrow=classic;html=1;rounded=0;exitX=0.157;exitY=0.25;exitDx=0;exitDy=0;exitPerimeter=0;fontSize=12;strokeWidth=1;spacing=2;" parent="1" source="AKfOE-RP20w9o-3AV9IG-145" edge="1">
          <mxGeometry width="50" height="50" relative="1" as="geometry">
            <mxPoint x="1285.07" y="367.13" as="sourcePoint" />
            <mxPoint x="1210" y="270" as="targetPoint" />
          </mxGeometry>
        </mxCell>
        <mxCell id="AKfOE-RP20w9o-3AV9IG-153" value="ναι" style="text;html=1;align=center;verticalAlign=middle;resizable=0;points=[];autosize=1;strokeColor=none;fillColor=none;fontSize=12;strokeWidth=1;spacing=2;fontStyle=1" parent="1" vertex="1">
          <mxGeometry x="1305.07" y="270" width="40" height="20" as="geometry" />
        </mxCell>
        <mxCell id="AKfOE-RP20w9o-3AV9IG-154" value="οχι" style="text;html=1;align=center;verticalAlign=middle;resizable=0;points=[];autosize=1;strokeColor=none;fillColor=none;fontSize=12;strokeWidth=1;spacing=2;fontStyle=1" parent="1" vertex="1">
          <mxGeometry x="1205" y="292.13" width="40" height="20" as="geometry" />
        </mxCell>
        <mxCell id="AKfOE-RP20w9o-3AV9IG-155" value="" style="ellipse;shape=umlControl;whiteSpace=wrap;html=1;fontSize=12;strokeWidth=1;spacing=2;" parent="1" vertex="1">
          <mxGeometry x="1114.96" y="177.13" width="50" height="60" as="geometry" />
        </mxCell>
        <mxCell id="AKfOE-RP20w9o-3AV9IG-156" value="Εμφάνισε μήνυμα&lt;br style=&quot;font-size: 12px;&quot;&gt;μη διαθέσιμου φαρμακείου" style="text;html=1;align=center;verticalAlign=middle;resizable=0;points=[];autosize=1;strokeColor=none;fillColor=none;fontSize=12;strokeWidth=1;spacing=2;fontStyle=1" parent="1" vertex="1">
          <mxGeometry x="1044.96" y="237.13" width="170" height="40" as="geometry" />
        </mxCell>
        <mxCell id="AKfOE-RP20w9o-3AV9IG-157" value="" style="endArrow=classic;html=1;rounded=0;fontSize=12;strokeWidth=1;spacing=2;" parent="1" source="AKfOE-RP20w9o-3AV9IG-156" target="AKfOE-RP20w9o-3AV9IG-12" edge="1">
          <mxGeometry width="50" height="50" relative="1" as="geometry">
            <mxPoint x="850" y="182.13" as="sourcePoint" />
            <mxPoint x="810" y="117.13" as="targetPoint" />
            <Array as="points" />
          </mxGeometry>
        </mxCell>
        <mxCell id="AKfOE-RP20w9o-3AV9IG-160" value="Εμφάνισε&lt;br style=&quot;font-size: 12px&quot;&gt;διαθέσιμα φαρμακεία" style="text;html=1;align=center;verticalAlign=middle;resizable=0;points=[];autosize=1;strokeColor=none;fillColor=none;fontSize=12;strokeWidth=1;spacing=2;fontStyle=1" parent="1" vertex="1">
          <mxGeometry x="1328.62" y="285" width="140" height="40" as="geometry" />
        </mxCell>
        <mxCell id="AKfOE-RP20w9o-3AV9IG-161" value="" style="endArrow=classic;html=1;rounded=0;fontSize=12;strokeWidth=1;spacing=2;" parent="1" edge="1">
          <mxGeometry width="50" height="50" relative="1" as="geometry">
            <mxPoint x="1423.62" y="245" as="sourcePoint" />
            <mxPoint x="1513.62" y="245" as="targetPoint" />
            <Array as="points" />
          </mxGeometry>
        </mxCell>
        <mxCell id="AKfOE-RP20w9o-3AV9IG-162" value="Οθόνη διαθέσιμων &lt;br&gt;φαρμακείων" style="text;html=1;align=center;verticalAlign=middle;resizable=0;points=[];autosize=1;strokeColor=none;fillColor=none;fontSize=12;fontStyle=1" parent="1" vertex="1">
          <mxGeometry x="1493.62" y="285" width="120" height="30" as="geometry" />
        </mxCell>
        <mxCell id="AKfOE-RP20w9o-3AV9IG-163" value="" style="ellipse;shape=umlControl;whiteSpace=wrap;html=1;fontSize=12;strokeWidth=1;spacing=2;" parent="1" vertex="1">
          <mxGeometry x="1685" y="210" width="50" height="60" as="geometry" />
        </mxCell>
        <mxCell id="AKfOE-RP20w9o-3AV9IG-164" value="" style="endArrow=classic;html=1;rounded=0;fontSize=12;strokeWidth=1;spacing=2;exitX=1.009;exitY=0.52;exitDx=0;exitDy=0;exitPerimeter=0;entryX=0.005;entryY=0.56;entryDx=0;entryDy=0;entryPerimeter=0;" parent="1" source="AKfOE-RP20w9o-3AV9IG-151" target="AKfOE-RP20w9o-3AV9IG-163" edge="1">
          <mxGeometry width="50" height="50" relative="1" as="geometry">
            <mxPoint x="1513.55" y="339.12" as="sourcePoint" />
            <mxPoint x="1680" y="246" as="targetPoint" />
            <Array as="points" />
          </mxGeometry>
        </mxCell>
        <mxCell id="AKfOE-RP20w9o-3AV9IG-165" value="Επέλεξε φαρμακείο" style="text;html=1;align=center;verticalAlign=middle;resizable=0;points=[];autosize=1;strokeColor=none;fillColor=none;fontSize=12;fontStyle=1" parent="1" vertex="1">
          <mxGeometry x="1650" y="272.13" width="130" height="20" as="geometry" />
        </mxCell>
        <mxCell id="AKfOE-RP20w9o-3AV9IG-167" value="" style="endArrow=classic;html=1;rounded=0;fontSize=12;strokeWidth=1;spacing=2;exitX=1.034;exitY=0.645;exitDx=0;exitDy=0;exitPerimeter=0;" parent="1" source="AKfOE-RP20w9o-3AV9IG-163" edge="1">
          <mxGeometry width="50" height="50" relative="1" as="geometry">
            <mxPoint x="1720" y="95" as="sourcePoint" />
            <mxPoint x="1790" y="119" as="targetPoint" />
            <Array as="points" />
          </mxGeometry>
        </mxCell>
        <mxCell id="AKfOE-RP20w9o-3AV9IG-169" value="Φαρμακείο" style="text;html=1;align=center;verticalAlign=middle;resizable=0;points=[];autosize=1;strokeColor=none;fillColor=none;fontSize=12;fontStyle=1" parent="1" vertex="1">
          <mxGeometry x="1790" y="150" width="80" height="20" as="geometry" />
        </mxCell>
        <mxCell id="AKfOE-RP20w9o-3AV9IG-171" value="" style="curved=1;endArrow=classic;html=1;rounded=0;fontSize=12;strokeWidth=1;exitX=1;exitY=0.3333333333333333;exitDx=0;exitDy=0;exitPerimeter=0;" parent="1" source="AKfOE-RP20w9o-3AV9IG-1" edge="1">
          <mxGeometry width="50" height="50" relative="1" as="geometry">
            <mxPoint x="120" y="325" as="sourcePoint" />
            <mxPoint x="220" y="330" as="targetPoint" />
            <Array as="points">
              <mxPoint x="130" y="320" />
            </Array>
          </mxGeometry>
        </mxCell>
        <mxCell id="AKfOE-RP20w9o-3AV9IG-170" value="" style="curved=1;endArrow=classic;html=1;rounded=0;fontSize=12;strokeWidth=1;entryX=0.016;entryY=0.462;entryDx=0;entryDy=0;entryPerimeter=0;" parent="1" target="AKfOE-RP20w9o-3AV9IG-172" edge="1">
          <mxGeometry width="50" height="50" relative="1" as="geometry">
            <mxPoint x="110" y="250" as="sourcePoint" />
            <mxPoint x="210" y="200" as="targetPoint" />
            <Array as="points">
              <mxPoint x="140" y="200" />
            </Array>
          </mxGeometry>
        </mxCell>
        <mxCell id="AKfOE-RP20w9o-3AV9IG-172" value="" style="shape=umlBoundary;whiteSpace=wrap;html=1;fontSize=12;strokeWidth=1;spacing=2;" parent="1" vertex="1">
          <mxGeometry x="220" y="170" width="70" height="60" as="geometry" />
        </mxCell>
        <mxCell id="AKfOE-RP20w9o-3AV9IG-174" value="" style="shape=umlBoundary;whiteSpace=wrap;html=1;fontSize=12;strokeWidth=1;spacing=2;" parent="1" vertex="1">
          <mxGeometry x="220" y="300" width="70" height="60" as="geometry" />
        </mxCell>
        <mxCell id="AKfOE-RP20w9o-3AV9IG-178" value="Eγγραφή στο&amp;nbsp;&lt;br&gt;σύστημα" style="text;html=1;align=center;verticalAlign=middle;resizable=0;points=[];autosize=1;strokeColor=none;fillColor=none;fontSize=12;fontStyle=1" parent="1" vertex="1">
          <mxGeometry x="220" y="235" width="90" height="30" as="geometry" />
        </mxCell>
        <mxCell id="AKfOE-RP20w9o-3AV9IG-179" value="Είσοδος χωρίς&lt;br&gt;εγγραφή" style="text;html=1;align=center;verticalAlign=middle;resizable=0;points=[];autosize=1;strokeColor=none;fillColor=none;fontSize=12;fontStyle=1" parent="1" vertex="1">
          <mxGeometry x="215" y="365" width="100" height="30" as="geometry" />
        </mxCell>
        <mxCell id="AKfOE-RP20w9o-3AV9IG-180" value="" style="curved=1;endArrow=classic;html=1;rounded=0;fontSize=12;strokeWidth=1;entryX=0.063;entryY=0.257;entryDx=0;entryDy=0;entryPerimeter=0;" parent="1" target="AKfOE-RP20w9o-3AV9IG-182" edge="1">
          <mxGeometry width="50" height="50" relative="1" as="geometry">
            <mxPoint x="290" y="200" as="sourcePoint" />
            <mxPoint x="370" y="230" as="targetPoint" />
            <Array as="points">
              <mxPoint x="330" y="170" />
            </Array>
          </mxGeometry>
        </mxCell>
        <mxCell id="AKfOE-RP20w9o-3AV9IG-181" value="" style="curved=1;endArrow=classic;html=1;rounded=0;fontSize=12;strokeWidth=1;entryX=0;entryY=0.833;entryDx=0;entryDy=0;entryPerimeter=0;" parent="1" target="AKfOE-RP20w9o-3AV9IG-182" edge="1">
          <mxGeometry width="50" height="50" relative="1" as="geometry">
            <mxPoint x="290" y="325" as="sourcePoint" />
            <mxPoint x="370" y="290" as="targetPoint" />
            <Array as="points">
              <mxPoint x="330" y="350" />
            </Array>
          </mxGeometry>
        </mxCell>
        <mxCell id="AKfOE-RP20w9o-3AV9IG-182" value="" style="ellipse;shape=umlControl;whiteSpace=wrap;html=1;fontSize=12;strokeWidth=1;spacing=2;fontColor=#000000;labelBackgroundColor=#FFFFFF;labelBorderColor=#000000;" parent="1" vertex="1">
          <mxGeometry x="370" y="215" width="60" height="70" as="geometry" />
        </mxCell>
        <mxCell id="AKfOE-RP20w9o-3AV9IG-183" value="&lt;b&gt;Εμφάνισε&lt;/b&gt;" style="text;html=1;align=center;verticalAlign=middle;resizable=0;points=[];autosize=1;strokeColor=none;fillColor=none;fontSize=12;" parent="1" vertex="1">
          <mxGeometry x="360" y="290" width="70" height="20" as="geometry" />
        </mxCell>
        <mxCell id="AKfOE-RP20w9o-3AV9IG-185" value="" style="endArrow=classic;html=1;rounded=0;fontSize=12;strokeWidth=1;spacing=2;exitX=1.049;exitY=0.619;exitDx=0;exitDy=0;exitPerimeter=0;" parent="1" source="AKfOE-RP20w9o-3AV9IG-182" edge="1">
          <mxGeometry width="50" height="50" relative="1" as="geometry">
            <mxPoint x="450" y="260" as="sourcePoint" />
            <mxPoint x="500" y="260" as="targetPoint" />
            <Array as="points" />
          </mxGeometry>
        </mxCell>
        <mxCell id="AKfOE-RP20w9o-3AV9IG-187" value="" style="ellipse;shape=umlControl;whiteSpace=wrap;html=1;fontSize=12;strokeWidth=1;spacing=2;" parent="1" vertex="1">
          <mxGeometry x="980.07" y="310" width="50" height="60" as="geometry" />
        </mxCell>
        <mxCell id="AKfOE-RP20w9o-3AV9IG-188" value="Πρόσθεσε" style="text;html=1;align=center;verticalAlign=middle;resizable=0;points=[];autosize=1;strokeColor=none;fillColor=none;fontSize=12;fontColor=#000000;fontStyle=1" parent="1" vertex="1">
          <mxGeometry x="970.07" y="375" width="70" height="20" as="geometry" />
        </mxCell>
        <mxCell id="AKfOE-RP20w9o-3AV9IG-190" value="" style="endArrow=classic;html=1;rounded=0;exitX=1.002;exitY=0.533;exitDx=0;exitDy=0;exitPerimeter=0;fontSize=12;strokeWidth=1;spacing=2;entryX=0.012;entryY=0.494;entryDx=0;entryDy=0;entryPerimeter=0;" parent="1" target="AKfOE-RP20w9o-3AV9IG-145" edge="1">
          <mxGeometry width="50" height="50" relative="1" as="geometry">
            <mxPoint x="1030.07" y="341.3600000000001" as="sourcePoint" />
            <mxPoint x="1180" y="341" as="targetPoint" />
            <Array as="points" />
          </mxGeometry>
        </mxCell>
        <mxCell id="6pwtXoSBNGAXOpl_ANqQ-11" value="" style="edgeStyle=orthogonalEdgeStyle;curved=1;rounded=0;orthogonalLoop=1;jettySize=auto;html=1;fontSize=12;fontColor=#000000;strokeWidth=1;" edge="1" parent="1" target="AKfOE-RP20w9o-3AV9IG-208">
          <mxGeometry relative="1" as="geometry">
            <mxPoint x="1865" y="320" as="sourcePoint" />
            <mxPoint x="1865.0699999999993" y="372.1300000000001" as="targetPoint" />
          </mxGeometry>
        </mxCell>
        <mxCell id="AKfOE-RP20w9o-3AV9IG-203" value="" style="ellipse;shape=umlControl;whiteSpace=wrap;html=1;fontSize=12;strokeWidth=1;spacing=2;" parent="1" vertex="1">
          <mxGeometry x="1840.07" y="232.13" width="50" height="60" as="geometry" />
        </mxCell>
        <mxCell id="AKfOE-RP20w9o-3AV9IG-204" value="" style="endArrow=classic;html=1;rounded=0;fontSize=12;strokeWidth=1;spacing=2;entryX=0.516;entryY=0.007;entryDx=0;entryDy=0;entryPerimeter=0;" parent="1" target="AKfOE-RP20w9o-3AV9IG-203" edge="1">
          <mxGeometry width="50" height="50" relative="1" as="geometry">
            <mxPoint x="1866" y="120" as="sourcePoint" />
            <mxPoint x="1963.2999999999997" y="170.29999999999995" as="targetPoint" />
            <Array as="points" />
          </mxGeometry>
        </mxCell>
        <mxCell id="AKfOE-RP20w9o-3AV9IG-205" value="Εμφάνισε διαθέσιμες&amp;nbsp;&lt;br&gt;ημερομηνίες και ώρες" style="text;html=1;align=center;verticalAlign=middle;resizable=0;points=[];autosize=1;strokeColor=none;fillColor=none;fontSize=12;fontColor=#000000;fontStyle=1" parent="1" vertex="1">
          <mxGeometry x="1795.07" y="292.13" width="140" height="30" as="geometry" />
        </mxCell>
        <mxCell id="AKfOE-RP20w9o-3AV9IG-208" value="" style="shape=umlBoundary;whiteSpace=wrap;html=1;" parent="1" vertex="1">
          <mxGeometry x="1825.07" y="412.13" width="80" height="70" as="geometry" />
        </mxCell>
        <mxCell id="6pwtXoSBNGAXOpl_ANqQ-1" value="Επιλογή υπηρεσίας&lt;br&gt;φαρμακείου" style="text;html=1;align=center;verticalAlign=middle;resizable=0;points=[];autosize=1;strokeColor=none;fillColor=none;fontSize=12;fontColor=#000000;" vertex="1" parent="1">
          <mxGeometry x="850" y="349.63" width="120" height="30" as="geometry" />
        </mxCell>
        <mxCell id="6pwtXoSBNGAXOpl_ANqQ-9" value="" style="ellipse;shape=umlControl;whiteSpace=wrap;html=1;fontSize=12;strokeWidth=1;spacing=2;" vertex="1" parent="1">
          <mxGeometry x="1370" y="215" width="50" height="60" as="geometry" />
        </mxCell>
        <mxCell id="6pwtXoSBNGAXOpl_ANqQ-12" value="Οθόνη Ημερομηνίας&lt;br&gt;και ώρας" style="text;html=1;align=center;verticalAlign=middle;resizable=0;points=[];autosize=1;strokeColor=none;fillColor=none;fontSize=12;fontColor=#000000;fontStyle=1" vertex="1" parent="1">
          <mxGeometry x="1800.07" y="490" width="130" height="30" as="geometry" />
        </mxCell>
        <mxCell id="6pwtXoSBNGAXOpl_ANqQ-13" value="" style="ellipse;shape=umlControl;whiteSpace=wrap;html=1;fontSize=12;strokeWidth=1;spacing=2;" vertex="1" parent="1">
          <mxGeometry x="1848.62" y="585" width="50" height="60" as="geometry" />
        </mxCell>
        <mxCell id="6pwtXoSBNGAXOpl_ANqQ-14" value="&lt;b style=&quot;font-size: 12px&quot;&gt;Υπάρχουν διαθέσιμες&lt;br&gt;ώρες?&lt;br style=&quot;font-size: 12px&quot;&gt;&lt;/b&gt;" style="text;html=1;align=center;verticalAlign=middle;resizable=0;points=[];autosize=1;strokeColor=none;fillColor=none;fontSize=12;strokeWidth=1;spacing=2;" vertex="1" parent="1">
          <mxGeometry x="1803.6200000000001" y="650" width="140" height="40" as="geometry" />
        </mxCell>
        <mxCell id="6pwtXoSBNGAXOpl_ANqQ-15" value="" style="endArrow=classic;html=1;rounded=0;fontSize=12;strokeWidth=1;spacing=2;exitX=0.029;exitY=0.715;exitDx=0;exitDy=0;exitPerimeter=0;" edge="1" parent="1" source="6pwtXoSBNGAXOpl_ANqQ-13">
          <mxGeometry width="50" height="50" relative="1" as="geometry">
            <mxPoint x="1888.62" y="597.13" as="sourcePoint" />
            <mxPoint x="1750" y="670" as="targetPoint" />
            <Array as="points" />
          </mxGeometry>
        </mxCell>
        <mxCell id="6pwtXoSBNGAXOpl_ANqQ-16" value="" style="endArrow=classic;html=1;rounded=0;exitX=0.157;exitY=0.25;exitDx=0;exitDy=0;exitPerimeter=0;fontSize=12;strokeWidth=1;spacing=2;entryX=1.034;entryY=0.607;entryDx=0;entryDy=0;entryPerimeter=0;" edge="1" parent="1" source="6pwtXoSBNGAXOpl_ANqQ-13" target="6pwtXoSBNGAXOpl_ANqQ-20">
          <mxGeometry width="50" height="50" relative="1" as="geometry">
            <mxPoint x="1870.07" y="634.26" as="sourcePoint" />
            <mxPoint x="1795" y="537.13" as="targetPoint" />
          </mxGeometry>
        </mxCell>
        <mxCell id="6pwtXoSBNGAXOpl_ANqQ-17" value="ναι" style="text;html=1;align=center;verticalAlign=middle;resizable=0;points=[];autosize=1;strokeColor=none;fillColor=none;fontSize=12;strokeWidth=1;spacing=2;fontStyle=1" vertex="1" parent="1">
          <mxGeometry x="1600" y="685" width="40" height="20" as="geometry" />
        </mxCell>
        <mxCell id="6pwtXoSBNGAXOpl_ANqQ-18" value="οχι" style="text;html=1;align=center;verticalAlign=middle;resizable=0;points=[];autosize=1;strokeColor=none;fillColor=none;fontSize=12;strokeWidth=1;spacing=2;fontStyle=1" vertex="1" parent="1">
          <mxGeometry x="1620" y="620" width="40" height="20" as="geometry" />
        </mxCell>
        <mxCell id="6pwtXoSBNGAXOpl_ANqQ-24" value="" style="edgeStyle=orthogonalEdgeStyle;curved=1;rounded=0;orthogonalLoop=1;jettySize=auto;html=1;fontSize=12;fontColor=#000000;strokeWidth=1;entryX=0.636;entryY=1.167;entryDx=0;entryDy=0;entryPerimeter=0;" edge="1" parent="1" source="6pwtXoSBNGAXOpl_ANqQ-20" target="AKfOE-RP20w9o-3AV9IG-162">
          <mxGeometry relative="1" as="geometry">
            <mxPoint x="1620" y="527.1300000000001" as="targetPoint" />
          </mxGeometry>
        </mxCell>
        <mxCell id="6pwtXoSBNGAXOpl_ANqQ-20" value="" style="ellipse;shape=umlControl;whiteSpace=wrap;html=1;fontSize=12;strokeWidth=1;spacing=2;" vertex="1" parent="1">
          <mxGeometry x="1700" y="497.13" width="50" height="60" as="geometry" />
        </mxCell>
        <mxCell id="6pwtXoSBNGAXOpl_ANqQ-22" value="&lt;b&gt;Εμφάνιση μηνύματος&lt;br&gt;μη διαθέσιμων ωρών&lt;/b&gt;" style="text;html=1;align=center;verticalAlign=middle;resizable=0;points=[];autosize=1;strokeColor=none;fillColor=none;fontSize=12;fontColor=#000000;" vertex="1" parent="1">
          <mxGeometry x="1650" y="555" width="140" height="30" as="geometry" />
        </mxCell>
        <mxCell id="6pwtXoSBNGAXOpl_ANqQ-28" value="" style="endArrow=classic;html=1;rounded=0;fontSize=12;strokeWidth=1;spacing=2;exitX=0.498;exitY=1.129;exitDx=0;exitDy=0;exitPerimeter=0;entryX=0.58;entryY=-0.049;entryDx=0;entryDy=0;entryPerimeter=0;" edge="1" parent="1">
          <mxGeometry width="50" height="50" relative="1" as="geometry">
            <mxPoint x="1870.0000000000002" y="521.0099999999995" as="sourcePoint" />
            <mxPoint x="1871.5400000000002" y="585" as="targetPoint" />
            <Array as="points" />
          </mxGeometry>
        </mxCell>
        <mxCell id="6pwtXoSBNGAXOpl_ANqQ-29" value="" style="ellipse;shape=umlControl;whiteSpace=wrap;html=1;fontSize=12;strokeWidth=1;spacing=2;" vertex="1" parent="1">
          <mxGeometry x="1695" y="645" width="50" height="60" as="geometry" />
        </mxCell>
        <mxCell id="6pwtXoSBNGAXOpl_ANqQ-30" value="Ικανοποιείται με τις&amp;nbsp;&lt;br&gt;διαθέσιμες ώρες?" style="text;html=1;align=center;verticalAlign=middle;resizable=0;points=[];autosize=1;strokeColor=none;fillColor=none;fontSize=12;fontColor=#000000;fontStyle=1" vertex="1" parent="1">
          <mxGeometry x="1665.07" y="705" width="130" height="30" as="geometry" />
        </mxCell>
        <mxCell id="6pwtXoSBNGAXOpl_ANqQ-31" value="" style="endArrow=classic;html=1;rounded=0;fontSize=12;strokeWidth=1;spacing=2;exitX=0.029;exitY=0.715;exitDx=0;exitDy=0;exitPerimeter=0;" edge="1" parent="1">
          <mxGeometry width="50" height="50" relative="1" as="geometry">
            <mxPoint x="1695.0000000000002" y="680.0000000000001" as="sourcePoint" />
            <mxPoint x="1450" y="680" as="targetPoint" />
            <Array as="points" />
          </mxGeometry>
        </mxCell>
        <mxCell id="6pwtXoSBNGAXOpl_ANqQ-32" value="" style="endArrow=classic;html=1;rounded=0;exitX=0.157;exitY=0.25;exitDx=0;exitDy=0;exitPerimeter=0;fontSize=12;strokeWidth=1;spacing=2;entryX=0.345;entryY=1.269;entryDx=0;entryDy=0;entryPerimeter=0;edgeStyle=orthogonalEdgeStyle;curved=1;" edge="1" parent="1" target="AKfOE-RP20w9o-3AV9IG-162">
          <mxGeometry width="50" height="50" relative="1" as="geometry">
            <mxPoint x="1699.77" y="666.45" as="sourcePoint" />
            <mxPoint x="1590" y="590" as="targetPoint" />
          </mxGeometry>
        </mxCell>
        <mxCell id="6pwtXoSBNGAXOpl_ANqQ-33" value="Επιλογή&amp;nbsp;&lt;br&gt;ημερομηνίας και&lt;br&gt;ώρας" style="text;html=1;align=center;verticalAlign=middle;resizable=0;points=[];autosize=1;strokeColor=none;fillColor=none;fontSize=12;fontColor=#000000;" vertex="1" parent="1">
          <mxGeometry x="1493.62" y="685" width="100" height="50" as="geometry" />
        </mxCell>
        <mxCell id="6pwtXoSBNGAXOpl_ANqQ-34" value="" style="ellipse;shape=umlControl;whiteSpace=wrap;html=1;fontSize=12;strokeWidth=1;spacing=2;" vertex="1" parent="1">
          <mxGeometry x="1390" y="645" width="50" height="60" as="geometry" />
        </mxCell>
        <mxCell id="6pwtXoSBNGAXOpl_ANqQ-35" value="Πρόσθεσε" style="text;html=1;align=center;verticalAlign=middle;resizable=0;points=[];autosize=1;strokeColor=none;fillColor=none;fontSize=12;fontColor=#000000;fontStyle=1" vertex="1" parent="1">
          <mxGeometry x="1380" y="710" width="70" height="20" as="geometry" />
        </mxCell>
        <mxCell id="6pwtXoSBNGAXOpl_ANqQ-36" value="" style="ellipse;shape=umlControl;whiteSpace=wrap;html=1;fontSize=12;strokeWidth=1;spacing=2;fontColor=#000000;labelBackgroundColor=#FFFFFF;labelBorderColor=#000000;" vertex="1" parent="1">
          <mxGeometry x="1205.0000000000002" y="647.5" width="60" height="70" as="geometry" />
        </mxCell>
        <mxCell id="6pwtXoSBNGAXOpl_ANqQ-37" value="" style="endArrow=classic;html=1;rounded=0;fontSize=12;strokeWidth=1;spacing=2;" edge="1" parent="1" target="6pwtXoSBNGAXOpl_ANqQ-36">
          <mxGeometry width="50" height="50" relative="1" as="geometry">
            <mxPoint x="1387" y="683" as="sourcePoint" />
            <mxPoint x="1289.93" y="723.55" as="targetPoint" />
            <Array as="points" />
          </mxGeometry>
        </mxCell>
        <mxCell id="6pwtXoSBNGAXOpl_ANqQ-40" value="Εμφάνισε επιβεβαίωση&lt;br&gt;κράτησης" style="text;html=1;align=center;verticalAlign=middle;resizable=0;points=[];autosize=1;strokeColor=none;fillColor=none;fontSize=12;fontColor=#000000;fontStyle=1" vertex="1" parent="1">
          <mxGeometry x="1155" y="715" width="150" height="30" as="geometry" />
        </mxCell>
        <mxCell id="6pwtXoSBNGAXOpl_ANqQ-41" value="" style="ellipse;shape=umlEntity;whiteSpace=wrap;html=1;" vertex="1" parent="1">
          <mxGeometry x="1010" y="650" width="70" height="75" as="geometry" />
        </mxCell>
        <mxCell id="6pwtXoSBNGAXOpl_ANqQ-42" value="" style="endArrow=classic;html=1;rounded=0;fontSize=12;strokeWidth=1;spacing=2;exitX=-0.052;exitY=0.563;exitDx=0;exitDy=0;exitPerimeter=0;" edge="1" parent="1">
          <mxGeometry width="50" height="50" relative="1" as="geometry">
            <mxPoint x="1201.1599999999996" y="685" as="sourcePoint" />
            <mxPoint x="1080" y="685" as="targetPoint" />
            <Array as="points" />
          </mxGeometry>
        </mxCell>
        <mxCell id="6pwtXoSBNGAXOpl_ANqQ-44" value="Επιβεβαίωση&lt;br&gt;κράτησης" style="text;html=1;align=center;verticalAlign=middle;resizable=0;points=[];autosize=1;strokeColor=none;fillColor=none;fontSize=12;fontColor=#000000;fontStyle=1" vertex="1" parent="1">
          <mxGeometry x="1000" y="725" width="90" height="30" as="geometry" />
        </mxCell>
      </root>
    </mxGraphModel>
  </diagram>
</mxfile>
